<svg width="25" height="24" viewBox="0 0 25 24" fill="none" xmlns="http://www.w3.org/2000/svg">
<g clip-path="url(#clip0_4_286)">
<rect width="24" height="24" transform="translate(0.380142)" fill="white"/>
<path fill-rule="evenodd" clip-rule="evenodd" d="M13.954 3.4573C13.7197 3.22299 13.3398 3.22299 13.1055 3.4573C12.8715 3.69133 12.8712 4.07058 13.1046 4.30496L4.79663 10.3308L4.78896 10.3231C4.55464 10.0888 4.17474 10.0888 3.94043 10.3231C3.70611 10.5575 3.70611 10.9374 3.94043 11.1717L8.12586 15.3571L3.1986 20.2844L3.23319 21.1766L4.12545 21.2112L9.05271 16.2839L13.2085 20.4397C13.4428 20.674 13.8227 20.674 14.057 20.4397C14.2913 20.2054 14.2913 19.8255 14.057 19.5912L14.0567 19.5909L20.0752 11.2755C20.3096 11.509 20.6888 11.5087 20.9228 11.2747C21.1572 11.0403 21.1572 10.6604 20.9228 10.4261L13.954 3.4573Z" fill="black"/>
</g>
<defs>
<clipPath id="clip0_4_286">
<rect width="24" height="24" fill="white" transform="translate(0.380142)"/>
</clipPath>
</defs>
</svg>
