<svg width="25" height="24" viewBox="0 0 25 24" fill="none" xmlns="http://www.w3.org/2000/svg">
<rect width="24" height="24" transform="translate(0.380142)" fill="white"/>
<path d="M17.819 1.82727C18.9664 1.82727 18.6781 3.26539 17.819 3.17225L19.3836 11.9539C19.4541 12.3501 19.5725 12.8388 19.2602 13.0926C19.169 13.1666 19.0589 13.2025 18.9443 13.2131C18.5579 13.2488 18.2393 12.958 17.9746 12.6742C14.986 9.47047 9.59492 3.6323 9.12197 2.88175C8.62711 2.09642 9.22058 1.85155 9.57918 1.82727H17.819Z" fill="black"/>
<path d="M19.3054 15.6543L7.7861 3.07306L7.78306 3.06975C7.47521 2.73351 7.10289 2.32686 6.65801 2.42349C6.48523 2.46102 6.35964 2.57044 6.2748 2.71196C6.05558 3.07764 6.28533 3.51939 6.56097 3.84465L7.48139 4.93074L5.98874 13.2546C4.78545 13.4558 5.31219 14.6417 5.98874 14.6417H12.161V21.2852L12.8738 22.1727L13.5671 21.2852V14.6417H16.3404L18.217 16.5055C19.2879 16.9154 19.3888 16.1088 19.3054 15.6543Z" fill="black"/>
</svg>
