<svg width="24" height="24" viewBox="0 0 24 24" fill="none" xmlns="http://www.w3.org/2000/svg">
<g clip-path="url(#clip0_5_313)">
<rect width="24" height="24" transform="matrix(-1 0 0 1 24 0)" fill="white"/>
<path fill-rule="evenodd" clip-rule="evenodd" d="M3.4573 10.4261C3.22298 10.6604 3.22298 11.0403 3.4573 11.2747C3.69132 11.5087 4.07057 11.509 4.30496 11.2755L10.3308 19.5835L10.3231 19.5912C10.0888 19.8255 10.0888 20.2054 10.3231 20.4397C10.5575 20.674 10.9373 20.674 11.1717 20.4397L15.3571 16.2543L20.2844 21.1815L21.1766 21.147L21.2112 20.2547L16.2839 15.3274L20.4397 11.1717C20.674 10.9374 20.674 10.5575 20.4397 10.3231C20.2054 10.0888 19.8255 10.0888 19.5912 10.3231L19.5909 10.3235L11.2755 4.30494C11.509 4.07056 11.5087 3.69132 11.2746 3.4573C11.0403 3.22299 10.6604 3.22299 10.4261 3.4573L3.4573 10.4261Z" fill="black"/>
</g>
<defs>
<clipPath id="clip0_5_313">
<rect width="24" height="24" fill="white" transform="matrix(-1 0 0 1 24 0)"/>
</clipPath>
</defs>
</svg>
